<?xml version="1.0" encoding="UTF-8" standalone="no"?>
<svg
   xmlns:dc="http://purl.org/dc/elements/1.1/"
   xmlns:cc="http://creativecommons.org/ns#"
   xmlns:rdf="http://www.w3.org/1999/02/22-rdf-syntax-ns#"
   xmlns:svg="http://www.w3.org/2000/svg"
   xmlns="http://www.w3.org/2000/svg"
   xmlns:sodipodi="http://sodipodi.sourceforge.net/DTD/sodipodi-0.dtd"
   xmlns:inkscape="http://www.inkscape.org/namespaces/inkscape"
   class="nc-icon glyph"
   x="0px"
   y="0px"
   width="24px"
   height="24px"
   viewBox="0 0 24 24"
   version="1.1"
   id="svg6"
   sodipodi:docname="cd-icon-movie.svg"
   inkscape:version="0.92.3 (2405546, 2018-03-11)">
  <metadata
     id="metadata12">
    <rdf:RDF>
      <cc:Work
         rdf:about="">
        <dc:format>image/svg+xml</dc:format>
        <dc:type
           rdf:resource="http://purl.org/dc/dcmitype/StillImage" />
      </cc:Work>
    </rdf:RDF>
  </metadata>
  <defs
     id="defs10" />
  <sodipodi:namedview
     pagecolor="#ffffff"
     bordercolor="#666666"
     borderopacity="1"
     objecttolerance="10"
     gridtolerance="10"
     guidetolerance="10"
     inkscape:pageopacity="0"
     inkscape:pageshadow="2"
     inkscape:window-width="1050"
     inkscape:window-height="1617"
     id="namedview8"
     showgrid="false"
     inkscape:zoom="13.906433"
     inkscape:cx="13.202279"
     inkscape:cy="8.989618"
     inkscape:window-x="-8"
     inkscape:window-y="-8"
     inkscape:window-maximized="1"
     inkscape:current-layer="svg6" />
  <path
     class="a"
     d="M 18.449964,4.0986348 15.24658,7.2744623 12.041473,4.0986348 8.8363675,7.2744623 5.6312614,4.0986348 -0.00221608,9.6821691 H 1.6511432 L 5.6312614,5.7364951 8.009689,8.0925303 7.232954,8.862377 5.6312614,7.2744623 3.2028895,9.6856136 H 4.8545271 L 5.6312614,8.9157674 6.406274,9.6856136 H 8.0596339 L 8.8363675,8.9157674 9.6113808,9.6856136 h 1.6533582 l 0.776734,-0.7698462 0.775013,0.7698462 h 1.653359 l 0.776735,-0.7698462 0.775011,0.7698462 h 1.65336 l 0.775013,-0.7698462 0.776734,0.7698462 h 1.656805 L 18.45341,7.2744623 16.851716,8.862377 16.076702,8.0925303 l 2.373262,-2.3560352 3.983562,3.945674 h 1.653359 z M 13.650054,8.862377 12.048363,7.2744623 10.444949,8.862377 9.6699351,8.0925303 12.041473,5.7364951 14.419898,8.0925303 Z"
     id="svg_1"
     inkscape:connector-curvature="0"
     style="fill:#1d1d1b;stroke-width:0.17222492" />
  <path
     class="b"
     d="m 5.6312614,19.972609 3.2051061,-3.175827 3.2051055,3.175827 3.205107,-3.175827 3.203384,3.175827 5.635202,-5.583534 h -1.65164 l -3.981841,3.945677 -2.376705,-2.357762 0.775016,-0.768124 1.601689,1.587916 2.430095,-2.41115 h -1.653358 l -0.776737,0.768125 -0.775012,-0.768125 h -1.653357 l -0.775011,0.768125 -0.776738,-0.768125 h -1.653358 l -0.775012,0.768125 -0.776736,-0.768125 H 9.6131033 L 8.8380896,15.153757 8.0613546,14.385632 H 6.4079962 L 5.6329847,15.153757 4.8562487,14.385632 H 3.2028895 l 2.4283719,2.41115 1.6016926,-1.587916 0.776735,0.768124 -2.3784276,2.357762 -3.9801182,-3.945677 h -1.65335928 z m 4.8067966,-4.763743 1.603415,1.587916 1.608581,-1.587916 0.776735,0.768124 -2.378426,2.357762 -2.3853157,-2.357762 z"
     id="svg_2"
     inkscape:connector-curvature="0"
     style="fill:#575756;stroke-width:0.17222492" />
  <path
     class="c"
     d="M 16.750105,10.291846 14.394071,12.625492 12.041473,10.291846 9.6888824,12.625492 7.3362893,10.291846 3.2028898,14.389075 H 4.408465 l 2.9278243,-2.895101 1.7463621,1.72225 -0.5700656,0.564897 -1.1762965,-1.155629 -1.7808058,1.763583 h 1.2055741 l 0.5752317,-0.558008 0.5700642,0.564898 H 9.111928 l 0.5769544,-0.564898 0.5700616,0.564898 h 1.205578 l 0.576951,-0.564898 0.568343,0.564898 h 1.212463 l 0.571792,-0.564898 0.568337,0.564898 h 1.205575 l 0.582122,-0.564898 0.570064,0.564898 h 1.205574 l -1.775638,-1.770473 -1.176296,1.165966 -0.568343,-0.5649 1.744639,-1.722248 2.927823,2.8951 h 1.205575 z m -3.527168,3.496167 -1.181464,-1.162521 -1.176295,1.165966 -0.570063,-0.5649 1.746358,-1.722248 1.744639,1.722248 z"
     id="svg_3"
     inkscape:connector-curvature="0"
     style="fill:#be1622;stroke-width:0.17222492" />
  <path
     class="d"
     d="m 7.3362893,13.779399 2.3525931,-2.331924 2.3525906,2.331924 2.352598,-2.331924 2.356034,2.331924 4.133398,-4.0972299 h -1.205575 l -2.927823,2.8951009 -1.744639,-1.722248 0.568343,-0.563176 1.176296,1.155629 1.782529,-1.7653059 H 17.327058 L 16.750105,10.245344 16.181762,9.6821691 H 14.976188 L 14.407845,10.245344 13.822279,9.6821691 H 12.616705 L 12.048363,10.245344 11.478299,9.6821691 H 10.272724 L 9.6888824,10.245344 9.1188173,9.6821691 H 7.9132428 L 7.3431781,10.245344 6.7610576,9.6821691 H 5.5554826 L 7.3362893,11.447475 8.5125851,10.283232 9.0826506,10.84641 7.3362893,12.568659 4.4084645,9.673558 h -1.205575 z m 3.5288887,-3.496167 1.176295,1.164243 1.176299,-1.164243 0.56834,0.563178 -1.744639,1.722249 -1.746358,-1.722249 z"
     id="svg_4"
     inkscape:connector-curvature="0"
     style="fill:#7a231c;stroke-width:0.17222492" />
</svg>
