<?xml version="1.0" encoding="UTF-8" standalone="no"?>
<svg
   xmlns:dc="http://purl.org/dc/elements/1.1/"
   xmlns:cc="http://creativecommons.org/ns#"
   xmlns:rdf="http://www.w3.org/1999/02/22-rdf-syntax-ns#"
   xmlns:svg="http://www.w3.org/2000/svg"
   xmlns="http://www.w3.org/2000/svg"
   xmlns:xlink="http://www.w3.org/1999/xlink"
   xmlns:sodipodi="http://sodipodi.sourceforge.net/DTD/sodipodi-0.dtd"
   xmlns:inkscape="http://www.inkscape.org/namespaces/inkscape"
   class="nc-icon glyph"
   x="0px"
   y="0px"
   width="24px"
   height="24px"
   viewBox="0 0 24 24"
   version="1.1"
   id="svg3736"
   sodipodi:docname="cd-icon-location.svg"
   inkscape:version="0.92.3 (2405546, 2018-03-11)">
  <metadata
     id="metadata3742">
    <rdf:RDF>
      <cc:Work
         rdf:about="">
        <dc:format>image/svg+xml</dc:format>
        <dc:type
           rdf:resource="http://purl.org/dc/dcmitype/StillImage" />
      </cc:Work>
    </rdf:RDF>
  </metadata>
  <defs
     id="defs3740" />
  <sodipodi:namedview
     pagecolor="#ffffff"
     bordercolor="#666666"
     borderopacity="1"
     objecttolerance="10"
     gridtolerance="10"
     guidetolerance="10"
     inkscape:pageopacity="0"
     inkscape:pageshadow="2"
     inkscape:window-width="1050"
     inkscape:window-height="1617"
     id="namedview3738"
     showgrid="false"
     inkscape:zoom="9.8333333"
     inkscape:cx="12.65883"
     inkscape:cy="22.242464"
     inkscape:window-x="-8"
     inkscape:window-y="-8"
     inkscape:window-maximized="1"
     inkscape:current-layer="svg3736" />
  <path
     inkscape:connector-curvature="0"
     d="m 18.046482,17.915563 c -0.137832,-0.423506 -0.194241,-0.761949 -0.117817,-1.113581 -0.329345,0.406675 -0.69235,0.789696 -0.69235,0.789696 0,0 -0.430784,0.448526 -0.762402,0.751939 0.07915,0.433062 0.177864,0.746938 0.363915,1.109489 0.127368,0.248827 0.275666,0.469451 0.392119,0.627299 0.06231,0.08461 0.128734,0.17104 0.164217,0.214256 0.589542,-0.43215 1.058537,-0.897053 1.367866,-1.25187 -0.264749,-0.31888 -0.608649,-0.797884 -0.715548,-1.127228 z m 2.859011,2.145282 c -0.40713,0.528131 -0.915703,1.060358 -1.482956,1.551645 0.173771,0.07188 0.374832,0.136922 0.646859,0.209705 0.293409,0.07824 0.490831,0.110085 0.746028,0.129191 l 0.249736,-1.268246 0.107356,0.221535 c 0.11327,0.233815 0.267478,0.352541 0.522674,0.402124 0.269752,0.05231 0.565433,0.01501 0.665056,-0.206065 0.100076,-0.221079 0.05095,-0.469452 -0.24155,-0.711455 -0.179227,-0.148296 -0.408041,-0.217895 -0.6414,-0.257471 -0.208797,-0.03503 -0.41168,-0.0464 -0.571803,-0.07097 z M 4.6070821,21.445543 C 4.3905535,21.249938 4.1835756,21.048874 3.988882,20.845082 3.7414191,20.585793 3.5185205,20.321044 3.3160931,20.058115 c -0.1628517,0.02638 -0.3734685,0.0373 -0.5899992,0.07369 -0.2333594,0.03958 -0.4621721,0.109175 -0.6414008,0.257471 -0.2920427,0.242004 -0.3416247,0.490376 -0.2420026,0.711456 0.1000761,0.221076 0.3957575,0.258379 0.6655091,0.206065 0.2551964,-0.04959 0.4094051,-0.168309 0.5226748,-0.402125 l 0.1073537,-0.221533 0.2497381,1.268245 c 0.2551963,-0.01909 0.4526191,-0.05095 0.7460274,-0.129191 0.2756657,-0.07369 0.4785467,-0.139651 0.6536828,-0.212435 z m 0.8215392,-2.461434 c 0.315697,0.36801 0.690985,0.734656 1.1190399,1.07992 0.08552,0.06823 0.1746803,0.136923 0.2747562,0.211527 0.035484,-0.04367 0.088706,-0.110541 0.1510258,-0.195151 0.1164526,-0.157848 0.2647493,-0.378472 0.3921185,-0.627299 0.1855966,-0.362551 0.284765,-0.650499 0.3639156,-1.083559 -0.331162,-0.303869 -0.7869663,-0.778779 -0.7869663,-0.778779 0,0 -0.3388975,-0.382111 -0.6677864,-0.788786 0.076423,0.351632 0.020016,0.690075 -0.1178162,1.113581 -0.1055363,0.32525 -0.4298766,0.788787 -0.7282871,1.068546 z M 20.073035,16.174228 c 0.73056,1.724504 -3.088276,6.043726 -7.963378,6.050548 -4.8428077,-0.0069 -8.677567,-4.341966 -7.9638373,-6.049184 -0.4899212,0.317971 -1.1558861,0.758309 -1.3587693,0.933898 -1.0662729,0.922525 0.8074378,3.698746 3.4995025,5.411424 1.9514956,1.242315 3.8697871,1.658543 5.8231041,1.63671 1.953315,0.02182 3.87115,-0.394395 5.823101,-1.63671 2.691611,-1.712678 4.565319,-4.488899 3.499503,-5.411424 -0.205157,-0.177409 -0.872943,-0.619566 -1.359226,-0.935262 z M 3.4712116,23.225091 3.0645357,21.163508 c -0.1269155,0.16376 -0.3234305,0.262929 -0.5249481,0.30478 -0.1733146,0.03638 -0.3398053,0.04413 -0.5144854,-0.0182 0.1373781,0.25747 0.2410949,0.428056 0.4044006,0.749667 0.1728608,0.340262 0.287494,0.655956 0.4103148,0.891592 0.1214571,0.233362 0.2351807,0.353907 0.396669,0.371193 0.1132679,0.01229 0.2570138,-0.124185 0.234725,-0.237452 z m 17.2609674,0 c -0.0223,0.113267 0.121457,0.249735 0.23427,0.237453 0.161943,-0.0173 0.275667,-0.137832 0.397124,-0.371193 0.12282,-0.235636 0.236996,-0.55133 0.410313,-0.891593 0.163306,-0.32161 0.267023,-0.492196 0.404402,-0.749666 -0.174681,0.06231 -0.341171,0.05459 -0.514486,0.0182 -0.201519,-0.04186 -0.398033,-0.14102 -0.525405,-0.304781 l -0.406218,2.061584"
     id="path3006"
     style="fill:#faa61a;fill-opacity:1;fill-rule:evenodd;stroke:none;stroke-width:0.20535143" />
  <path
     inkscape:connector-curvature="0"
     d="m 5.9208178,20.478566 -0.6595968,0.87567 0.1819577,0.136468 0.2729367,-0.375288 h 0.011372 l 0.011372,0.602735 0.2160748,0.159213 -0.022745,-0.727831 0.659597,-0.14784 -0.2047025,-0.159212 -0.5572458,0.136467 h -0.011371 l 0.2729366,-0.363914 z m 12.0547002,0.250192 -0.125096,0.102349 0.329798,1.125865 0.181958,-0.136468 -0.09098,-0.272938 0.295682,-0.227448 0.250191,0.147842 0.193331,-0.147842 z m 0.125096,0.29568 c 0.02684,0.0232 0.06596,0.04776 0.113724,0.0796 l 0.181958,0.113724 -0.181958,0.14784 -0.06823,-0.216074 c -0.01594,-0.05049 -0.02821,-0.09234 -0.04548,-0.125097 z m -0.636852,0.113723 -0.750575,0.47764 0.09098,0.14784 0.272936,-0.159214 0.477639,0.761949 0.19333,-0.125096 -0.47764,-0.761948 0.250192,-0.159214 z M 6.8192345,21.251885 c -0.035668,0.0018 -0.068008,0.01388 -0.1023513,0.02274 -0.1391975,0.03593 -0.2588351,0.124186 -0.3411709,0.261563 -0.086882,0.144656 -0.1128139,0.29932 -0.068234,0.443523 0.037756,0.123276 0.1237304,0.235635 0.2615642,0.318426 0.1455614,0.08779 0.2938621,0.102807 0.4321499,0.06823 0.1360082,-0.03411 0.2601987,-0.126915 0.3411708,-0.261565 0.07824,-0.130553 0.106444,-0.266112 0.079606,-0.398032 C 7.3928532,21.56575 7.3023321,21.434739 7.1490331,21.342851 7.0419075,21.278361 6.9262329,21.246311 6.819235,21.251871 Z m 0.1023513,0.204703 c 0.042275,0.0061 0.084722,0.02126 0.1250959,0.04548 0.1619381,0.09735 0.2119801,0.287493 0.090978,0.489011 -0.122362,0.204257 -0.3184254,0.243376 -0.4776385,0.147848 -0.1614924,-0.09735 -0.2024292,-0.285218 -0.079606,-0.489011 0.091776,-0.153187 0.2143376,-0.211456 0.341171,-0.19333 z m 9.3139612,0.363916 -0.159213,0.07961 0.0796,1.171352 0.204702,-0.102351 -0.02274,-0.28431 0.341172,-0.14784 0.204703,0.19333 0.216073,-0.102352 z m -7.9151627,0.136468 -0.056861,0.181957 0.2956815,0.102351 -0.3070539,0.852928 0.2160749,0.0796 0.3070538,-0.852928 0.2729366,0.102351 0.1137237,-0.159212 z m 7.9606517,0.181957 c 0.02093,0.02755 0.05382,0.06305 0.09098,0.102351 l 0.159212,0.159213 -0.216074,0.102352 -0.01138,-0.238821 c -0.0042,-0.05231 -0.01319,-0.08916 -0.02274,-0.125095 z m -1.000767,0.09098 c -0.05374,0.006 -0.113952,0.01319 -0.181958,0.03412 -0.355716,0.108718 -0.513576,0.423961 -0.420775,0.72783 0.08961,0.292496 0.351631,0.464901 0.682339,0.363916 0.172403,-0.05278 0.3066,-0.135558 0.398033,-0.227447 l -0.136469,-0.454894 -0.216074,0.06823 0.10235,0.352544 c -0.03321,0.02775 -0.08779,0.04959 -0.14784,0.06823 -0.216977,0.06642 -0.393482,-0.0605 -0.454892,-0.261565 -0.0564,-0.183323 -0.0037,-0.382111 0.272934,-0.466266 0.104637,-0.0323 0.207888,-0.02958 0.307054,-0.01138 l -0.05687,-0.19333 c -0.0464,-0.0016 -0.0941,-0.006 -0.147842,0 z m -5.8112765,0.113723 -0.2843088,1.05763 0.6141078,0.159213 0.04549,-0.170585 -0.38666,-0.113724 0.06823,-0.261564 0.34117,0.09098 0.04549,-0.181957 -0.34117,-0.09098 0.06823,-0.250192 0.3298,0.09098 0.1137245,-0.159214 z m 4.7195315,0.19333 -0.227448,0.03411 0.09098,0.545874 c 0.0073,0.04549 0.01138,0.120547 0.02275,0.170587 -0.03637,-0.03958 -0.07415,-0.07778 -0.125095,-0.125097 l -0.534501,-0.500385 -0.227447,0.03411 0.170586,1.080376 0.216073,-0.03411 -0.09098,-0.591364 c -0.0078,-0.04867 -0.0141,-0.12373 -0.02275,-0.159213 0.04002,0.0423 0.07597,0.09051 0.125097,0.136469 l 0.557245,0.523127 0.216076,-0.03411 z m -3.343475,0.113724 -0.02274,0.181958 0.318426,0.03411 -0.09098,0.898416 0.227447,0.02275 0.09098,-0.898417 0.295681,0.03411 0.06823,-0.181958 z m 1.467035,0.06823 -0.409405,1.103119 h 0.227448 l 0.09098,-0.272936 h 0.375287 l 0.113724,0.261563 h 0.23882 l -0.466268,-1.09174 z m 0.09098,0.307053 c 0.0074,0.03411 0.02638,0.07097 0.04549,0.125096 l 0.0796,0.216076 h -0.238823 l 0.0796,-0.216076 c 0.01729,-0.05003 0.0282,-0.0887 0.03412,-0.125096 z"
     id="path3008"
     style="fill:#231f20;fill-opacity:1;fill-rule:evenodd;stroke:none;stroke-width:0.20535143" />
  <path
     inkscape:connector-curvature="0"
     d="m 18.187498,16.237002 c 0.209253,-0.352997 0.479006,-0.627299 0.934354,-0.64322 0.261109,-0.0096 0.442612,0.03092 0.658687,0.190147 0.03548,0.02593 1.517982,0.992124 1.759531,1.20092 0.687799,0.595457 0.350724,1.739515 -0.52131,2.925426 0.14375,0.01728 0.312968,0.03001 0.485829,0.05913 0.244278,0.0414 0.506752,0.117362 0.719188,0.292952 0.339353,0.280669 0.41714,0.568164 0.264748,0.950275 -0.201063,0.415774 -0.350725,0.634122 -0.567708,1.061722 -0.173315,0.341171 -0.287949,0.656868 -0.411226,0.893412 -0.12464,0.23882 -0.273845,0.431696 -0.524947,0.458533 -0.201062,0.02182 -0.462172,-0.189235 -0.413955,-0.433058 l 0.212437,-1.079011 c -0.256105,-0.02001 -0.458533,-0.05322 -0.75649,-0.132828 -0.314785,-0.0846 -0.542688,-0.160122 -0.743753,-0.249736 -0.398942,0.33571 -0.824267,0.650044 -1.261875,0.928439 -1.981974,1.261422 -3.930742,1.684472 -5.911351,1.662185 -1.981066,0.0223 -3.9293799,-0.400763 -5.9118098,-1.662185 -0.4394273,-0.27976 -0.8665727,-0.595458 -1.2673345,-0.932534 -0.2033369,0.09143 -0.4335153,0.167857 -0.7537609,0.253831 -0.2979546,0.0796 -0.500384,0.112814 -0.7564879,0.132828 l 0.212436,1.079011 c 0.048219,0.24382 -0.2128918,0.454891 -0.4134997,0.433055 C 2.9671888,23.599469 2.8184383,23.406588 2.6937962,23.167768 2.5705217,22.931224 2.4558864,22.615527 2.2825718,22.274356 2.0651334,21.846756 1.915927,21.628408 1.7148654,21.212634 1.5624742,20.830523 1.6402615,20.543028 1.9796128,20.262359 c 0.2119801,-0.17559 0.47491,-0.251557 0.7191878,-0.292952 0.1787729,-0.03001 0.353453,-0.0423 0.4999302,-0.06096 C 2.3280612,18.723446 1.991441,17.579841 2.679241,16.984839 c 0.2829434,-0.244733 1.4247281,-0.980751 1.8154831,-1.231398 0.1983346,-0.134194 0.372103,-0.168312 0.6163807,-0.159669 0.4489826,0.01547 0.7173687,0.2834 0.9252561,0.63003 0.3698297,0.51403 1.0271515,1.255508 1.0271515,1.255508 0,0 0.4803682,0.500839 0.8101668,0.798794 l 0.025929,0.07506 c -0.082791,0.473544 -0.1874181,0.784692 -0.3871162,1.174991 -0.1323736,0.257926 -0.2856726,0.486282 -0.4062201,0.650045 -0.059137,0.0796 -0.1064459,0.15148 -0.1401072,0.203792 1.3337494,0.954369 3.0964663,1.67492 5.1434913,1.678106 2.050209,-0.0032 3.817473,-0.719642 5.153952,-1.670373 -0.04503,-0.05368 -0.105081,-0.128735 -0.166491,-0.211525 -0.120546,-0.163768 -0.273845,-0.392124 -0.405765,-0.65005 -0.200153,-0.390299 -0.30478,-0.701447 -0.387571,-1.174991 l 0.02593,-0.07506 c 0.329799,-0.297955 0.810167,-0.798794 0.810167,-0.798794 0,0 0.65732,-0.741478 1.027151,-1.255508 z m 1.899186,-0.05369 c 0.02092,0.05687 0.03548,0.115999 0.04548,0.176954 0.408495,1.82913 -3.31436,5.858129 -8.022516,5.864498 -4.8428072,-0.0069 -8.6775666,-4.341966 -7.9638369,-6.049184 -0.4899213,0.31797 -1.1558862,0.758308 -1.3587692,0.933897 -1.066273,0.922526 0.8074377,3.698746 3.4995024,5.411424 1.9514957,1.242316 3.8697877,1.658543 5.8231037,1.63671 1.953315,0.02182 3.87115,-0.394394 5.823101,-1.63671 2.691611,-1.712678 4.56532,-4.488898 3.499503,-5.411424 -0.20333,-0.175584 -0.860654,-0.610918 -1.34557,-0.92616 z m -0.575443,1.823217 c -0.118273,-0.165127 -0.349359,-0.244278 -0.569529,-0.253832 -0.250191,-0.01 -0.528586,0.06551 -0.647768,0.244735 0.114634,0.316605 0.37256,0.66369 0.60865,0.88022 0.242457,-0.293862 0.446251,-0.587724 0.608647,-0.871123 z M 5.9440165,18.005187 C 5.8198302,17.818224 5.5409814,17.742712 5.2912432,17.752721 c -0.2206234,0.0096 -0.4517095,0.0887 -0.5649792,0.247007 0.1605787,0.278395 0.359367,0.568619 0.5963672,0.857931 0.2370002,-0.224264 0.4917407,-0.573622 0.6213853,-0.852472 z m 12.1024655,-0.08963 c -0.137832,-0.423506 -0.194241,-0.761948 -0.117817,-1.113581 -0.329345,0.406675 -0.69235,0.789696 -0.69235,0.789696 0,0 -0.430784,0.448526 -0.762402,0.751939 0.07915,0.433062 0.177864,0.746938 0.363915,1.109489 0.127368,0.248828 0.275666,0.469451 0.392119,0.627299 0.06231,0.08461 0.128734,0.17104 0.164217,0.214256 0.589542,-0.43215 1.058537,-0.897053 1.367866,-1.25187 -0.264749,-0.31888 -0.608649,-0.797884 -0.715548,-1.127228 z m 2.859011,2.145282 c -0.40713,0.528131 -0.915703,1.060359 -1.482956,1.551645 0.173771,0.07188 0.374832,0.136922 0.646859,0.209705 0.293409,0.07824 0.490831,0.110085 0.746028,0.129191 l 0.249736,-1.268246 0.107356,0.221535 c 0.11327,0.233815 0.267478,0.352541 0.522674,0.402124 0.269752,0.05231 0.565433,0.01501 0.665056,-0.206065 0.100076,-0.221079 0.05095,-0.469452 -0.24155,-0.711455 -0.179227,-0.148296 -0.408041,-0.217895 -0.6414,-0.257471 -0.208797,-0.03503 -0.41168,-0.0464 -0.571803,-0.07097 z M 4.6070821,21.445542 C 4.3905535,21.249937 4.1835756,21.048873 3.988882,20.845081 3.7414191,20.585792 3.5185205,20.321044 3.3160931,20.058114 c -0.1628517,0.02638 -0.3734685,0.0373 -0.5899992,0.07369 -0.2333594,0.03958 -0.4621721,0.109175 -0.6414008,0.257471 -0.2920427,0.242005 -0.3416247,0.490376 -0.2420026,0.711456 0.1000761,0.221076 0.3957575,0.258379 0.6655091,0.206065 0.2551964,-0.04959 0.4094051,-0.168309 0.5226748,-0.402125 l 0.1073537,-0.221534 0.2497381,1.268246 c 0.2551963,-0.01909 0.4526191,-0.05095 0.7460274,-0.129192 0.2756657,-0.07369 0.4785467,-0.139651 0.6536828,-0.212435 z m 0.8215392,-2.461434 c 0.315697,0.368011 0.690985,0.734656 1.1190399,1.07992 0.08552,0.06823 0.1746803,0.136923 0.2747562,0.211527 0.035484,-0.04367 0.088706,-0.110541 0.1510258,-0.195151 0.1164526,-0.157847 0.2647493,-0.378471 0.3921185,-0.627298 0.1855966,-0.362551 0.284765,-0.650499 0.3639156,-1.083559 -0.331162,-0.303869 -0.7869663,-0.778779 -0.7869663,-0.778779 0,0 -0.3388975,-0.382111 -0.6677864,-0.788786 0.076423,0.351632 0.020016,0.690075 -0.1178162,1.113581 -0.1055363,0.32525 -0.4298766,0.788787 -0.7282871,1.068546 z M 3.4712116,23.22509 3.0645357,21.163507 c -0.1269155,0.16376 -0.3234305,0.262929 -0.5249481,0.30478 -0.1733146,0.03639 -0.3398053,0.04413 -0.5144854,-0.0182 0.1373781,0.25747 0.2410949,0.428056 0.4044006,0.749667 0.1728608,0.340262 0.287494,0.655956 0.4103148,0.891592 0.1214571,0.233362 0.2351807,0.353908 0.396669,0.371194 0.1132679,0.01229 0.2570138,-0.124186 0.234725,-0.237453 z m 17.2609674,0 c -0.0223,0.113267 0.121457,0.249735 0.23427,0.237453 0.161943,-0.01729 0.275667,-0.137832 0.397124,-0.371193 0.12282,-0.235636 0.236996,-0.55133 0.410313,-0.891593 0.163306,-0.32161 0.267023,-0.492196 0.404402,-0.749666 -0.174681,0.06231 -0.341171,0.05459 -0.514486,0.0182 -0.201519,-0.04186 -0.398033,-0.14102 -0.525405,-0.304781 l -0.406218,2.061584"
     id="path3038"
     style="fill:#231f20;fill-opacity:1;fill-rule:nonzero;stroke:none;stroke-width:0.20535143" />
  <path
     inkscape:connector-curvature="0"
     d="M 20.696241,0.45216917 V 9.5505106 c 0,0 0.0373,0.8133514 -0.288403,2.0897844 -0.326614,1.281892 -1.018509,3.033236 -2.481448,4.905126 -1.125864,1.441105 -2.58835,2.609274 -3.77244,3.418075 -1.043981,0.713731 -1.867795,1.145425 -2.045205,1.236404 C 11.924058,21.11074 11.050662,20.675861 9.9502715,19.923921 8.7070447,19.074179 7.1776898,17.8214 6.0254424,16.208345 4.8436285,14.553438 4.2236068,12.819382 3.8997225,11.497459 3.576292,10.179175 3.5480889,9.2752998 3.5480889,9.2752998 V 0.45216917 H 20.69624"
     id="path3040"
     style="fill:#faa61a;fill-opacity:1;fill-rule:evenodd;stroke:none;stroke-width:0.20535143" />
  <path
     inkscape:connector-curvature="0"
     d="M 5.5468935,2.4746292 H 18.699255 v 6.9949105 c 0,0 0,2.4714413 -1.968783,5.3613843 -1.694026,2.487362 -4.620815,4.057657 -4.620815,4.057657 0,0 -3.2406681,-1.938305 -4.8455369,-4.476614 C 5.4631943,11.563874 5.5468935,9.0505819 5.5468935,9.0505819 V 2.4746292"
     id="path3042"
     style="fill:#231f20;fill-opacity:1;fill-rule:evenodd;stroke:none;stroke-width:0.20535143" />
  <path
     inkscape:connector-curvature="0"
     d="M 20.860913,0.28704234 V 9.5468717 c 4.51e-4,0.012282 0.151936,3.3152693 -2.804423,7.0999913 -2.278566,2.916327 -5.946833,4.736358 -5.947745,4.736815 -0.0015,0.0016 -0.997127,-0.466268 -2.2512725,-1.323743 C 8.6051492,19.204279 7.0589639,17.938762 5.8912493,16.304328 3.4975952,12.952666 3.3834176,9.2830328 3.3834176,9.2780291 V 0.28704234 Z M 20.696241,0.45216917 H 3.5480889 V 9.2752998 c 0,0 0.028203,0.9038752 0.3516336,2.2221592 0.3238842,1.321923 0.9439059,3.055979 2.1257199,4.710886 1.1522474,1.613055 2.6816023,2.865834 3.9248291,3.715576 1.1003905,0.75194 1.9737865,1.18682 2.1584735,1.275979 0.17741,-0.09098 1.001224,-0.522673 2.045205,-1.236404 1.18409,-0.808801 2.646576,-1.97697 3.77244,-3.418075 1.462939,-1.87189 2.154834,-3.623234 2.481448,-4.905126 0.325704,-1.276433 0.288403,-2.0897844 0.288403,-2.0897844 V 0.45216917"
     id="path3044"
     style="fill:#231f20;fill-opacity:1;fill-rule:evenodd;stroke:none;stroke-width:0.20535143" />
  <path
     inkscape:connector-curvature="0"
     d="M 12.883885,0.81381006 C 12.044606,1.369691 11.072043,1.8841764 10.04671,2.0702282 8.449575,2.3599957 9.0627728,1.3396679 9.8565635,1.2923589 10.413357,1.2586968 10.294627,1.6521804 9.9730155,1.7454337 10.638074,1.5771228 11.012905,1.4529365 11.571061,1.154526 H 9.6636885 C 9.1673993,1.1599842 8.5924112,1.2195759 8.1252347,1.3619576 8.5032518,1.3078252 8.8612554,1.6671918 8.2794454,1.8905449 7.4510824,2.2085159 6.2342397,1.4433838 8.0128766,0.99986189 8.5137145,0.87476593 9.1346458,0.82245307 9.6468575,0.81653931 Z M 11.335881,2.0888789 C 12.17516,1.5329979 13.147726,1.0185126 14.173056,0.83246061 15.770189,0.54269296 15.156994,1.5630211 14.363202,1.6107851 13.805956,1.6439921 13.925141,1.2505087 14.246749,1.1572554 13.581694,1.3255663 13.206862,1.4502072 12.648706,1.7481631 h 1.907372 c 0.49629,-0.00546 1.071276,-0.06505 1.538452,-0.2074319 -0.378017,0.054587 -0.736019,-0.3052341 -0.154208,-0.5285873 0.827907,-0.31797104 2.045206,0.4471612 0.266567,0.8906833 -0.500839,0.1250957 -1.121771,0.1774086 -1.634436,0.1833223 z"
     id="path3046"
     style="fill:#ee3124;fill-opacity:1;fill-rule:evenodd;stroke:none;stroke-width:0.20535143" />
  <path
     inkscape:connector-curvature="0"
     d="m 5.3258163,16.684618 c -0.017287,0.100077 -0.1041708,0.176501 -0.2092512,0.176501 -0.1173644,0 -0.2124361,-0.09508 -0.2124361,-0.212437 0,-0.05187 0.017286,-0.09917 0.048672,-0.136468 0.032297,-0.03321 0.074149,-0.05777 0.1205475,-0.07142 0.146931,-0.04276 0.3443559,0.01638 0.4567139,0.200608 0.1519354,0.248828 -0.00409,0.605465 -0.2884018,0.716914 -0.3079636,0.121001 -0.9147936,-0.03548 -0.9816622,-0.664147 -0.044581,-0.419412 0.1059902,-0.677339 0.3821098,-0.835186 0.3534529,-0.194241 1.094022,-0.105081 1.2409531,0.558155 l -0.027749,0.01319 c -0.3393514,-0.433062 -0.7455714,-0.438065 -0.9912148,-0.30842 -0.347085,0.183776 -0.3325277,0.612287 -0.1842332,0.81608 0.146931,0.201063 0.3761977,0.243368 0.5540629,0.122367 0.094618,-0.06414 0.1555742,-0.233361 0.091888,-0.375743 z"
     id="path7088"
     style="fill:#faa61a;fill-opacity:1;fill-rule:evenodd;stroke:none;stroke-width:0.20535143" />
  <path
     inkscape:connector-curvature="0"
     d="M 12.897759,5.2954291 12.106698,4.7208974 11.315637,5.2954291 11.617686,4.3656249 10.827078,3.7910935 h 0.97757 l 0.30205,-0.9298042 0.302053,0.9298042 h 0.977564 l -0.791058,0.5745314 z"
     id="path7076"
     style="fill:#faa61a;fill-opacity:1;fill-rule:evenodd;stroke:none;stroke-width:0.20535143" />
  <path
     inkscape:connector-curvature="0"
     d="m 8.6792975,7.1650447 h 0.2474629 v 5.6447843 h 2.7916866 c 0.05549,-0.0042 0.0796,-0.01 0.108721,-0.02139 0.05777,-0.0223 0.131918,-0.06732 0.215164,-0.154664 0.03366,-0.03548 0.05913,-0.07097 0.08098,-0.102806 0.02183,0.03185 0.04594,0.06732 0.08006,0.102806 0.08325,0.08734 0.157395,0.132373 0.215167,0.154664 0.02911,0.01139 0.05321,0.0173 0.108718,0.02139 H 15.31849 V 7.1650447 h 0.247916 V 12.984963 H 12.69102 c 0.01774,0.222898 -0.213799,0.207432 -0.56407,0.207432 -0.359365,0 -0.590453,0.01547 -0.572256,-0.207432 H 8.6792975 V 7.1650447"
     id="path3052"
     style="fill:#ee3124;fill-opacity:1;fill-rule:nonzero;stroke:none;stroke-width:0.20535143" />
  <path
     inkscape:connector-curvature="0"
     d="m 9.9252535,6.2115861 c 0.2397295,-0.00955 0.5331355,-0.049583 0.8069815,-0.1696755 0.11236,-0.048674 0.20243,-0.1237311 0.325704,-0.1819578 0.137378,-0.06414 0.308873,-0.1078098 0.568165,-0.087795 0.207432,0.015922 0.350267,0.1000766 0.440793,0.1824127 0.02138,0.01956 0.04002,0.038666 0.05595,0.056861 0.01592,-0.018196 0.03411,-0.037301 0.0555,-0.056861 0.09098,-0.082337 0.233815,-0.1664914 0.441246,-0.1824127 0.259292,-0.020015 0.430786,0.023654 0.568165,0.087795 0.122822,0.058226 0.21289,0.1332843 0.325704,0.1819578 0.273846,0.1200921 0.566799,0.1601229 0.806982,0.1696755 0.219716,0.00727 0.43124,-0.019106 0.458079,-0.022289 0.01274,0.050948 0.03321,0.1792284 0.210617,0.2961362 0.106444,0.069598 0.329343,0.2019732 0.329343,0.2019732 v 6.1224225 h -2.791236 c -0.0555,-0.0042 -0.0796,-0.01 -0.108718,-0.02139 -0.05777,-0.0223 -0.131921,-0.06732 -0.215166,-0.154664 -0.03275,-0.03411 -0.05914,-0.06687 -0.08051,-0.09735 -0.02139,0.03048 -0.04777,0.06322 -0.08051,0.09735 -0.08325,0.08734 -0.157395,0.132373 -0.215166,0.154664 -0.02911,0.01139 -0.05322,0.0173 -0.07188,0.01957 l -2.8285315,0.0017 V 6.6874057 c 0,0 0.2233526,-0.1323743 0.3293426,-0.2019731 0.1778634,-0.1169078 0.1983344,-0.245188 0.2110704,-0.2961364 0.02684,0.00319 0.238366,0.029568 0.45808,0.02229 z m 2.2803845,5.6129419 v 0.470816 c -0.0017,0.02638 0,0.03866 0.0054,0.05595 0.01091,0.03457 0.03867,0.09326 0.11145,0.168765 0.07687,0.07961 0.142384,0.109631 0.179683,0.124186 l 2.591079,9.04e-4 -0.438064,-0.635942 c -0.09144,0.0074 -0.221078,0.01456 -0.351634,0.0096 -0.238366,-0.0096 -0.554065,-0.05141 -0.853384,-0.182417 -0.11418,-0.05003 -0.20516,-0.125551 -0.3298,-0.184234 -0.11054,-0.0514 -0.253376,-0.09052 -0.485372,-0.07279 -0.166491,0.01274 -0.275665,0.07915 -0.342991,0.140107 -0.0323,0.02911 -0.05504,0.05732 -0.08643,0.105082 z M 9.340714,6.6291792 C 9.2238053,6.6946839 9.1391943,6.7474518 9.0918856,6.7774746 V 12.43727 L 9.4626245,11.899585 V 6.5322868 c -0.04412,0.043215 -0.082337,0.075967 -0.1219105,0.096892 z m -0.1883279,6.0159778 2.5806179,-4.53e-4 c 0.06687,-0.0223 0.121456,-0.05231 0.190145,-0.12464 0.07279,-0.07596 0.100077,-0.134194 0.110993,-0.168765 l 0.0059,-0.05595 v -0.470816 c -0.03139,-0.04776 -0.05458,-0.07596 -0.08643,-0.10508 -0.06777,-0.06096 -0.176952,-0.12737 -0.342989,-0.140108 -0.231996,-0.01774 -0.374832,0.02139 -0.485373,0.07279 -0.12464,0.05868 -0.216075,0.134194 -0.329798,0.184232 -0.299774,0.131011 -0.615018,0.172859 -0.8533825,0.182413 -0.130554,0.0049 -0.260655,-0.0022 -0.352087,-0.0096 z M 12.039147,11.57843 V 6.178379 c 0,0 -0.115089,-0.2206238 -0.438973,-0.2429136 -0.472635,-0.033207 -0.617291,0.1719501 -0.834731,0.2670228 -0.51312,0.2233532 -1.1386005,0.1669462 -1.1386005,0.1669462 v 5.4814776 c 0,0 0.6477695,0.05777 1.1386005,-0.184233 0.212435,-0.105079 0.374834,-0.28249 0.820629,-0.251103 0.324341,0.02274 0.453075,0.162854 0.453075,0.162854 z m 0.1674,0 c 0,0 0.128736,-0.140108 0.453077,-0.162854 0.445796,-0.03139 0.608192,0.146024 0.820628,0.251103 0.490831,0.242005 1.1386,0.184233 1.1386,0.184233 V 6.3694344 c 0,0 -0.625478,0.056408 -1.1386,-0.1669462 -0.217439,-0.095073 -0.362096,-0.30023 -0.834731,-0.2670228 -0.323884,0.02229 -0.438974,0.2429136 -0.438974,0.2429136 z m 2.69798,-4.9492508 c -0.03912,-0.020926 -0.07778,-0.053678 -0.121457,-0.096892 v 5.3672978 l 0.370739,0.537685 V 6.7774746 c -0.04777,-0.030023 -0.13192,-0.08279 -0.206068,-0.1250959 l -0.04322,-0.0232"
     id="path3054"
     style="fill:#231f20;fill-opacity:1;fill-rule:nonzero;stroke:none;stroke-width:0.20535143" />
  <path
     inkscape:connector-curvature="0"
     d="M 9.340714,6.6291792 C 9.2238053,6.6946839 9.1391943,6.7474518 9.0918856,6.7774746 V 12.43727 L 9.4626245,11.899585 V 6.5322868 c -0.04412,0.043215 -0.082337,0.075967 -0.1219105,0.096892 z m 5.563813,0 c 0.117362,0.065505 0.201517,0.1182726 0.249282,0.1482954 V 12.43727 L 14.78307,11.899585 V 6.5322868 c 0.04367,0.043215 0.08233,0.075967 0.121457,0.096892 z m 0.188781,6.0159778 -2.580616,-4.53e-4 c -0.06687,-0.0223 -0.121457,-0.05231 -0.190145,-0.12464 -0.07279,-0.07596 -0.100532,-0.134194 -0.111451,-0.168765 l -0.0054,-0.526768 c 0.03139,-0.04776 0.05413,-0.07596 0.08643,-0.105081 0.06733,-0.06096 0.1765,-0.127369 0.342992,-0.140108 0.231994,-0.01774 0.374832,0.02139 0.485371,0.07279 0.12464,0.05869 0.215619,0.134194 0.3298,0.184233 0.29932,0.131011 0.615017,0.172859 0.853381,0.182413 0.130554,0.0049 0.2602,-0.0022 0.351633,-0.0096 z m -5.9409219,0 2.5806179,-4.53e-4 c 0.06687,-0.0223 0.121456,-0.05231 0.190145,-0.12464 0.07279,-0.07596 0.100077,-0.134194 0.110993,-0.168765 l 0.0059,-0.526768 c -0.03139,-0.04776 -0.05458,-0.07596 -0.08643,-0.105081 -0.06777,-0.06096 -0.176952,-0.127369 -0.342989,-0.140108 -0.231996,-0.01774 -0.374832,0.02139 -0.485373,0.07279 -0.12464,0.05869 -0.216075,0.134194 -0.329798,0.184233 -0.299774,0.131011 -0.615018,0.172859 -0.8533825,0.182413 -0.130554,0.0049 -0.260655,-0.0022 -0.352087,-0.0096 L 9.1523539,12.64512"
     id="path3056"
     style="fill:#faa61a;fill-opacity:1;fill-rule:evenodd;stroke:none;stroke-width:0.20535143" />
  <path
     inkscape:connector-curvature="0"
     d="M 12.039147,11.57843 V 6.178379 c 0,0 -0.115089,-0.2206238 -0.438973,-0.2429136 -0.472635,-0.033207 -0.617291,0.1719501 -0.834731,0.2670228 -0.51312,0.2233532 -1.1386005,0.1669462 -1.1386005,0.1669462 v 5.4814776 c 0,0 0.6477695,0.05777 1.1386005,-0.184233 0.212435,-0.105079 0.374834,-0.28249 0.820629,-0.251103 0.324341,0.02274 0.453075,0.162854 0.453075,0.162854 z m 0.1674,0 V 6.178379 c 0,0 0.11509,-0.2206238 0.438974,-0.2429136 0.472635,-0.033207 0.617292,0.1719501 0.834731,0.2670228 0.513122,0.2233532 1.1386,0.1669462 1.1386,0.1669462 v 5.4814776 c 0,0 -0.647769,0.05777 -1.1386,-0.184233 -0.212436,-0.105079 -0.374832,-0.28249 -0.820628,-0.251103 -0.324341,0.02274 -0.453077,0.162854 -0.453077,0.162854"
     id="path3058"
     style="fill:#ffffff;fill-opacity:1;fill-rule:evenodd;stroke:none;stroke-width:0.20535143" />
  <path
     inkscape:connector-curvature="0"
     d="m 9.8524705,7.0021927 c 0,0 0.2392735,0.071417 0.6450395,-0.047764 0.327979,-0.096438 0.514486,-0.2797602 0.789242,-0.3002304 0.274757,-0.020469 0.538141,0.04822 0.538141,0.04822 0,0 -0.227903,-0.1865067 -0.489922,-0.1878714 -0.368921,-0.00273 -0.577262,0.1942395 -0.887954,0.3070534 -0.384841,0.1396526 -0.5945465,0.180593 -0.5945465,0.1805924 z"
     id="path6766"
     style="fill:#000000;fill-opacity:1;fill-rule:evenodd;stroke:none;stroke-width:0.20535143" />
  <use
     id="use7020"
     x="0"
     y="0"
     width="744.09448"
     height="1052.3622"
     xlink:href="#path6766" />
  <use
     transform="translate(1.2152543e-7,0.52925458)"
     id="use7022"
     x="0"
     y="0"
     width="744.09448"
     height="1052.3622"
     xlink:href="#path6766" />
  <use
     transform="translate(1.2152543e-7,1.0585093)"
     id="use7024"
     x="0"
     y="0"
     width="744.09448"
     height="1052.3622"
     xlink:href="#path6766" />
  <use
     transform="translate(1.2152543e-7,1.587764)"
     id="use7026"
     x="0"
     y="0"
     width="744.09448"
     height="1052.3622"
     xlink:href="#path6766" />
  <use
     transform="translate(1.2152543e-7,2.1170185)"
     id="use7028"
     x="0"
     y="0"
     width="744.09448"
     height="1052.3622"
     xlink:href="#path6766" />
  <use
     transform="translate(1.2152543e-7,2.6462731)"
     id="use7030"
     x="0"
     y="0"
     width="744.09448"
     height="1052.3622"
     xlink:href="#path6766" />
  <use
     transform="translate(1.2152543e-7,3.1755278)"
     id="use7032"
     x="0"
     y="0"
     width="744.09448"
     height="1052.3622"
     xlink:href="#path6766" />
  <use
     transform="translate(1.2152543e-7,3.7047823)"
     id="use7034"
     x="0"
     y="0"
     width="744.09448"
     height="1052.3622"
     xlink:href="#path6766" />
  <use
     transform="translate(1.2152543e-7,4.2340367)"
     id="use7036"
     x="0"
     y="0"
     width="744.09448"
     height="1052.3622"
     xlink:href="#path6766" />
  <use
     transform="matrix(-1,0,0,1,24.241516,9.7966104e-8)"
     id="use7038"
     x="0"
     y="0"
     width="744.09448"
     height="1052.3622"
     xlink:href="#path6766" />
  <use
     transform="matrix(-1,0,0,1,24.241516,0.52925458)"
     id="use7040"
     x="0"
     y="0"
     width="744.09448"
     height="1052.3622"
     xlink:href="#path6766" />
  <use
     transform="matrix(-1,0,0,1,24.241516,1.0585093)"
     id="use7042"
     x="0"
     y="0"
     width="744.09448"
     height="1052.3622"
     xlink:href="#path6766" />
  <use
     transform="matrix(-1,0,0,1,24.241516,1.587764)"
     id="use7044"
     x="0"
     y="0"
     width="744.09448"
     height="1052.3622"
     xlink:href="#path6766" />
  <use
     transform="matrix(-1,0,0,1,24.241516,2.1170185)"
     id="use7046"
     x="0"
     y="0"
     width="744.09448"
     height="1052.3622"
     xlink:href="#path6766" />
  <use
     transform="matrix(-1,0,0,1,24.241516,2.6462731)"
     id="use7048"
     x="0"
     y="0"
     width="744.09448"
     height="1052.3622"
     xlink:href="#path6766" />
  <use
     transform="matrix(-1,0,0,1,24.241516,3.1755278)"
     id="use7050"
     x="0"
     y="0"
     width="744.09448"
     height="1052.3622"
     xlink:href="#path6766" />
  <use
     transform="matrix(-1,0,0,1,24.241516,3.7047823)"
     id="use7052"
     x="0"
     y="0"
     width="744.09448"
     height="1052.3622"
     xlink:href="#path6766" />
  <use
     transform="matrix(-1,0,0,1,24.241516,4.2340367)"
     id="use7054"
     x="0"
     y="0"
     width="744.09448"
     height="1052.3622"
     xlink:href="#path6766" />
  <path
     inkscape:connector-curvature="0"
     d="m 13.115882,17.220484 -0.993032,-0.721917 -0.993492,0.721917 0.379384,-1.167714 -0.993036,-0.721918 h 1.22776 l 0.379384,-1.167257 0.379378,1.167257 h 1.227762 l -0.993489,0.721918 0.379381,1.167714"
     id="path7080"
     style="fill:#faa61a;fill-opacity:1;fill-rule:evenodd;stroke:none;stroke-width:0.20535143" />
  <use
     transform="translate(5.068207,5.1034594)"
     id="use7082"
     x="0"
     y="0"
     width="744.09448"
     height="1052.3622"
     xlink:href="#path7076" />
  <use
     transform="translate(-5.0682035,5.1034594)"
     id="use7084"
     x="0"
     y="0"
     width="744.09448"
     height="1052.3622"
     xlink:href="#path7076" />
  <use
     transform="matrix(-1,0,0,1,24.232521,9.7966104e-8)"
     id="use7090"
     x="0"
     y="0"
     width="744.09448"
     height="1052.3622"
     xlink:href="#path7088" />
  <path
     inkscape:connector-curvature="0"
     d="M 5.1761561,8.9141135 C 4.6293729,8.1749104 4.1185265,7.3215284 3.935659,6.4185631 3.6504402,5.01112 4.6530275,5.5410719 4.6994265,6.2402446 4.7321779,6.7310756 4.3468833,6.6364574 4.2554486,6.3535132 4.4205758,6.9394171 4.5474912,7.2660311 4.8408973,7.7573172 V 6.0018799 C 4.8031414,5.5533541 4.7817622,5.3463772 4.6416551,4.9351527 4.6948781,5.2676806 4.3364207,5.5956592 4.1171609,5.0834483 3.804195,4.3537977 4.560683,3.263416 4.9969274,4.8305269 5.119748,5.2717744 5.1506822,5.5310642 5.1729711,5.9873233 Z M 6.40164,15.844885 c 1.0494424,0.559519 1.7599871,0.510845 2.4809945,1.084921 1.1235885,0.895233 -0.00773,1.135872 -0.4931044,0.630485 -0.3407169,-0.354818 0.028204,-0.505843 0.2897674,-0.375288 -0.5031132,-0.342536 -0.8274534,-0.406221 -1.3683222,-0.594092 0,0 0.8292726,1.249139 2.0206395,1.910556 C 9.103258,18.257188 9.1446547,17.811392 9.6427635,18.062949 10.351489,18.42095 10.449745,19.746968 9.1228197,18.805791 7.3505505,17.548918 6.40164,15.844885 6.40164,15.844885 Z m 1.4183623,0.214708 C 6.9975534,15.826688 6.1168772,15.568762 5.6169491,14.870955 c -0.8360966,-1.167259 0.03639,-1.14042 0.4926504,-0.630483 0.3284329,0.366644 -0.037302,0.533136 -0.2897693,0.375288 0.4321497,0.463991 0.7301065,0.619565 1.1795427,0.802433 0,0 -0.662782,-1.305091 -1.5184383,-2.224887 0.2183502,0.255649 0.1869621,0.68962 -0.3106926,0.438062 -0.7087253,-0.358002 -0.5317719,-1.983339 0.5199436,-0.742388 0.3557282,0.419869 0.6664208,0.868394 0.928439,1.246411 0.5281331,0.762403 0.8843151,1.384243 1.2013777,1.924202 z M 3.9797828,7.5694458 C 4.4806227,8.6475456 4.9919231,8.9878066 5.2216455,9.8803092 5.5801008,11.270465 4.5656874,10.786914 4.482442,10.09138 4.424215,9.6028235 4.7863108,9.691528 4.9059485,9.9617353 4.7285393,9.4090387 4.5738748,9.1729485 4.2554486,8.697129 c 0,0 -0.060501,1.414721 0.36892,2.722088 -0.026839,-0.335713 0.3325277,-0.747846 0.5790807,-0.247918 0.350268,0.712819 -0.5149412,1.861429 -0.9352627,0.290223 C 3.7832697,9.648313 3.9797828,7.5694458 3.9797828,7.5694458 Z M 4.3555267,1.2809865 C 4.1562823,1.7850095 4.0239087,2.2958559 3.9715956,2.7111742 3.7427827,4.3988322 5.0155775,3.6186884 5.0556086,2.8744814 5.0906355,2.2221628 4.5120106,2.4345984 4.3810004,2.7502951 4.4101136,2.5537807 4.4233053,2.4582529 4.4992727,2.1794028 4.5538587,1.980159 4.632556,1.7813702 4.7016998,1.6226122 4.860459,1.5534679 5.0578838,1.4734068 5.2575821,1.4192745 5.5364308,1.3428517 5.6319603,1.3296602 5.8284734,1.3010019 5.5127764,1.4320114 5.3003423,2.0101822 5.9526596,1.9756101 6.6968677,1.9351246 7.477012,0.66233025 5.7893539,0.8915969 5.3735789,0.94390949 4.8590935,1.0817429 4.3555267,1.2809865 Z"
     id="path7092"
     style="fill:#ee3124;fill-opacity:1;fill-rule:evenodd;stroke:none;stroke-width:0.20535143" />
  <use
     transform="matrix(-1,0,0,1,24.277577,9.7966104e-8)"
     id="use7094"
     x="0"
     y="0"
     width="744.09448"
     height="1052.3622"
     xlink:href="#path7092" />
  <path
     inkscape:connector-curvature="0"
     d="m 12.115569,20.704066 c 0.49447,-0.214711 0.912974,-0.462629 1.242316,-0.718734 1.355587,-1.031245 -0.130553,-1.41563 -0.650497,-0.881585 -0.449437,0.461263 0.04321,0.660506 0.430329,0.525403 0,0 -0.272027,0.186507 -0.53632,0.339351 -0.167402,0.09598 -0.347541,0.194241 -0.49174,0.258835 -0.143749,-0.0646 -0.324339,-0.162852 -0.491287,-0.258835 -0.264294,-0.152844 -0.536321,-0.339351 -0.536321,-0.339351 0.386661,0.135103 0.879767,-0.06414 0.430331,-0.525403 -0.519944,-0.534045 -2.0060855,-0.14966 -0.650954,0.881585 0.329799,0.256105 0.759219,0.504023 1.254143,0.718734 z"
     id="path7096"
     style="fill:#ee3124;fill-opacity:1;fill-rule:evenodd;stroke:none;stroke-width:0.20535143" />
</svg>
